<?xml version="1.0" encoding="UTF-8"?>
<svg xmlns="http://www.w3.org/2000/svg" xmlns:xlink="http://www.w3.org/1999/xlink" width="25px" height="25px" viewBox="0 0 25 25" version="1.1">
<g id="surface1">
<path style=" stroke:none;fill-rule:nonzero;fill:rgb(0%,0%,0%);fill-opacity:1;" d="M 21 2.5 L 16 2.5 L 16 1.5 C 16 0.671875 15.328125 0 14.5 0 L 10.5 0 C 9.671875 0 9 0.671875 9 1.5 L 9 2.5 L 4 2.5 C 3.726562 2.5 3.5 2.726562 3.5 3 C 3.5 3.273438 3.726562 3.5 4 3.5 L 4.542969 3.5 L 6.347656 23.757812 C 6.410156 24.453125 7 25 7.695312 25 L 17.304688 25 C 17.996094 25 18.585938 24.453125 18.648438 23.757812 L 20.457031 3.5 L 21 3.5 C 21.277344 3.5 21.5 3.273438 21.5 3 C 21.5 2.726562 21.277344 2.5 21 2.5 Z M 10 22 C 10 22.277344 9.773438 22.5 9.5 22.5 C 9.226562 22.5 9 22.277344 9 22 L 9 5.5 C 9 5.226562 9.226562 5 9.5 5 C 9.773438 5 10 5.226562 10 5.5 Z M 10 1.5 C 10 1.226562 10.226562 1 10.5 1 L 14.5 1 C 14.773438 1 15 1.226562 15 1.5 L 15 2.5 L 10 2.5 Z M 13 22 C 13 22.277344 12.773438 22.5 12.5 22.5 C 12.226562 22.5 12 22.277344 12 22 L 12 5.5 C 12 5.226562 12.226562 5 12.5 5 C 12.773438 5 13 5.226562 13 5.5 Z M 16 22 C 16 22.277344 15.777344 22.5 15.5 22.5 C 15.222656 22.5 15 22.277344 15 22 L 15 5.5 C 15 5.226562 15.222656 5 15.5 5 C 15.777344 5 16 5.226562 16 5.5 Z M 16 22 "/>
</g>
</svg>
