<?xml version="1.0" encoding="UTF-8"?>
<svg xmlns="http://www.w3.org/2000/svg" xmlns:xlink="http://www.w3.org/1999/xlink" width="50px" height="50px" viewBox="0 0 13 13" version="1.1">
<g id="surface1">
<path style=" stroke:none;fill-rule:nonzero;fill:rgb(0%,0%,0%);fill-opacity:1;" d="M 10.921875 1.300781 L 8.320312 1.300781 L 8.320312 0.78125 C 8.320312 0.351562 7.96875 0 7.539062 0 L 5.460938 0 C 5.03125 0 4.679688 0.351562 4.679688 0.78125 L 4.679688 1.300781 L 2.078125 1.300781 C 1.9375 1.300781 1.820312 1.417969 1.820312 1.558594 C 1.820312 1.703125 1.9375 1.820312 2.078125 1.820312 L 2.363281 1.820312 L 3.300781 12.355469 C 3.332031 12.714844 3.640625 13 4 13 L 8.996094 13 C 9.359375 13 9.664062 12.714844 9.699219 12.355469 L 10.636719 1.820312 L 10.921875 1.820312 C 11.0625 1.820312 11.179688 1.703125 11.179688 1.558594 C 11.179688 1.417969 11.0625 1.300781 10.921875 1.300781 Z M 5.199219 11.441406 C 5.199219 11.585938 5.082031 11.699219 4.941406 11.699219 C 4.796875 11.699219 4.679688 11.585938 4.679688 11.441406 L 4.679688 2.859375 C 4.679688 2.71875 4.796875 2.601562 4.941406 2.601562 C 5.082031 2.601562 5.199219 2.71875 5.199219 2.859375 Z M 5.199219 0.78125 C 5.199219 0.636719 5.316406 0.519531 5.460938 0.519531 L 7.539062 0.519531 C 7.683594 0.519531 7.800781 0.636719 7.800781 0.78125 L 7.800781 1.300781 L 5.199219 1.300781 Z M 6.761719 11.441406 C 6.761719 11.585938 6.644531 11.699219 6.5 11.699219 C 6.355469 11.699219 6.238281 11.585938 6.238281 11.441406 L 6.238281 2.859375 C 6.238281 2.71875 6.355469 2.601562 6.5 2.601562 C 6.644531 2.601562 6.761719 2.71875 6.761719 2.859375 Z M 8.320312 11.441406 C 8.320312 11.585938 8.203125 11.699219 8.058594 11.699219 C 7.914062 11.699219 7.800781 11.585938 7.800781 11.441406 L 7.800781 2.859375 C 7.800781 2.71875 7.914062 2.601562 8.058594 2.601562 C 8.203125 2.601562 8.320312 2.71875 8.320312 2.859375 Z M 8.320312 11.441406 "/>
</g>
</svg>
