<?xml version="1.0" encoding="UTF-8"?>
<svg xmlns="http://www.w3.org/2000/svg" xmlns:xlink="http://www.w3.org/1999/xlink" width="30px" height="30px" viewBox="0 0 30 30" version="1.1">
<g id="surface1">
<path style=" stroke:none;fill-rule:nonzero;fill:rgb(0%,0%,0%);fill-opacity:1;" d="M 25.875 1.199219 C 25.128906 1.199219 24.382812 1.492188 23.8125 2.0625 L 23.324219 2.550781 L 27.449219 6.675781 C 27.449219 6.675781 27.9375 6.1875 27.9375 6.1875 C 29.078125 5.046875 29.078125 3.203125 27.9375 2.0625 C 27.367188 1.492188 26.621094 1.199219 25.875 1.199219 Z M 22.40625 3.617188 C 22.269531 3.636719 22.144531 3.707031 22.050781 3.804688 L 2.585938 23.289062 C 2.511719 23.359375 2.453125 23.449219 2.417969 23.550781 L 1.21875 28.050781 C 1.164062 28.257812 1.226562 28.472656 1.375 28.625 C 1.527344 28.773438 1.742188 28.835938 1.949219 28.78125 L 6.449219 27.582031 C 6.550781 27.546875 6.640625 27.488281 6.710938 27.414062 L 26.195312 7.949219 C 26.433594 7.71875 26.433594 7.335938 26.203125 7.097656 C 25.972656 6.859375 25.589844 6.855469 25.351562 7.085938 L 5.980469 26.457031 L 3.542969 24.019531 L 22.914062 4.648438 C 23.09375 4.476562 23.148438 4.207031 23.046875 3.976562 C 22.945312 3.746094 22.714844 3.605469 22.460938 3.617188 C 22.445312 3.617188 22.425781 3.617188 22.40625 3.617188 Z M 22.40625 3.617188 "/>
</g>
</svg>
