<?xml version="1.0" encoding="UTF-8"?>
<svg xmlns="http://www.w3.org/2000/svg" xmlns:xlink="http://www.w3.org/1999/xlink" width="30px" height="30px" viewBox="0 0 30 30" version="1.1">
<g id="surface1">
<path style=" stroke:none;fill-rule:nonzero;fill:rgb(0%,0%,0%);fill-opacity:1;" d="M 25.199219 3 L 19.199219 3 L 19.199219 1.800781 C 19.199219 0.808594 18.390625 0 17.398438 0 L 12.601562 0 C 11.609375 0 10.800781 0.808594 10.800781 1.800781 L 10.800781 3 L 4.800781 3 C 4.46875 3 4.199219 3.269531 4.199219 3.601562 C 4.199219 3.929688 4.46875 4.199219 4.800781 4.199219 L 5.453125 4.199219 L 7.617188 28.507812 C 7.691406 29.34375 8.402344 30 9.234375 30 L 20.761719 30 C 21.59375 30 22.304688 29.34375 22.378906 28.507812 L 24.546875 4.199219 L 25.199219 4.199219 C 25.53125 4.199219 25.800781 3.929688 25.800781 3.601562 C 25.800781 3.269531 25.53125 3 25.199219 3 Z M 12 26.398438 C 12 26.734375 11.730469 27 11.398438 27 C 11.070312 27 10.800781 26.734375 10.800781 26.398438 L 10.800781 6.601562 C 10.800781 6.269531 11.070312 6 11.398438 6 C 11.730469 6 12 6.269531 12 6.601562 Z M 12 1.800781 C 12 1.46875 12.269531 1.199219 12.601562 1.199219 L 17.398438 1.199219 C 17.730469 1.199219 18 1.46875 18 1.800781 L 18 3 L 12 3 Z M 15.601562 26.398438 C 15.601562 26.734375 15.332031 27 15 27 C 14.667969 27 14.398438 26.734375 14.398438 26.398438 L 14.398438 6.601562 C 14.398438 6.269531 14.667969 6 15 6 C 15.332031 6 15.601562 6.269531 15.601562 6.601562 Z M 19.199219 26.398438 C 19.199219 26.734375 18.933594 27 18.601562 27 C 18.265625 27 18 26.734375 18 26.398438 L 18 6.601562 C 18 6.269531 18.265625 6 18.601562 6 C 18.933594 6 19.199219 6.269531 19.199219 6.601562 Z M 19.199219 26.398438 "/>
</g>
</svg>
